<svg preserveAspectRatio="none" width="100%" height="100%" overflow="visible" style="display: block;" viewBox="0 0 24 24" fill="none" xmlns="http://www.w3.org/2000/svg">
<g id="material-symbols:thumb-up-rounded">
<path id="Vector" d="M18.4762 9.62692C18.8825 9.62692 19.2381 9.77112 19.5429 10.0595C19.8476 10.3479 20 10.6844 20 11.0689V12.5109C20 12.5951 19.9903 12.6852 19.971 12.7813C19.9517 12.8775 19.9233 12.9676 19.8857 13.0517L17.6 18.1348C17.4857 18.3751 17.2952 18.5794 17.0286 18.7476C16.7619 18.9159 16.4825 19 16.1905 19H10.0952C9.67619 19 9.31759 18.8589 9.01943 18.5768C8.72127 18.2946 8.57194 17.955 8.57143 17.558V10.2217C8.57143 10.0295 8.61283 9.84634 8.69562 9.67234C8.77841 9.49834 8.8894 9.34501 9.02857 9.21234L13.1619 5.31891C13.3524 5.15067 13.5779 5.04853 13.8385 5.01248C14.099 4.97643 14.3497 5.01849 14.5905 5.13866C14.8312 5.25882 15.006 5.42706 15.1147 5.64336C15.2234 5.85966 15.2455 6.08197 15.181 6.31029L14.3238 9.62692H18.4762ZM5.52381 19C5.10476 19 4.74616 18.8589 4.448 18.5768C4.14984 18.2946 4.00051 17.955 4 17.558V11.0689C4 10.6724 4.14933 10.333 4.448 10.0509C4.74667 9.76872 5.10527 9.6274 5.52381 9.62692C5.94235 9.62644 6.30121 9.76776 6.60038 10.0509C6.89956 10.334 7.04863 10.6733 7.04762 11.0689V17.558C7.04762 17.9545 6.89854 18.2941 6.60038 18.5768C6.30222 18.8594 5.94337 19.0005 5.52381 19Z" fill="var(--fill-0, white)"/>
</g>
</svg>
