<svg preserveAspectRatio="none" width="100%" height="100%" overflow="visible" style="display: block;" viewBox="0 0 32 32" fill="none" xmlns="http://www.w3.org/2000/svg">
<g id="ic:round-plus">
<rect width="32" height="32" rx="16" fill="var(--fill-0, #5C5C5C)"/>
<path id="Vector" d="M24.3333 17.6667H17.6667V24.3333C17.6667 24.687 17.5262 25.0261 17.2761 25.2761C17.0261 25.5262 16.687 25.6667 16.3333 25.6667C15.9797 25.6667 15.6406 25.5262 15.3905 25.2761C15.1405 25.0261 15 24.687 15 24.3333V17.6667H8.33333C7.97971 17.6667 7.64057 17.5262 7.39052 17.2761C7.14048 17.0261 7 16.687 7 16.3333C7 15.9797 7.14048 15.6406 7.39052 15.3905C7.64057 15.1405 7.97971 15 8.33333 15H15V8.33333C15 7.97971 15.1405 7.64057 15.3905 7.39052C15.6406 7.14048 15.9797 7 16.3333 7C16.687 7 17.0261 7.14048 17.2761 7.39052C17.5262 7.64057 17.6667 7.97971 17.6667 8.33333V15H24.3333C24.687 15 25.0261 15.1405 25.2761 15.3905C25.5262 15.6406 25.6667 15.9797 25.6667 16.3333C25.6667 16.687 25.5262 17.0261 25.2761 17.2761C25.0261 17.5262 24.687 17.6667 24.3333 17.6667Z" fill="var(--fill-0, white)"/>
</g>
</svg>
