<svg preserveAspectRatio="none" width="100%" height="100%" overflow="visible" style="display: block;" viewBox="0 0 100 100" fill="none" xmlns="http://www.w3.org/2000/svg">
<g id="mdi:cart-outline">
<path id="Vector" d="M70.8333 75C73.0435 75 75.1631 75.878 76.7259 77.4408C78.2887 79.0036 79.1667 81.1232 79.1667 83.3333C79.1667 85.5435 78.2887 87.6631 76.7259 89.2259C75.1631 90.7887 73.0435 91.6667 70.8333 91.6667C68.6232 91.6667 66.5036 90.7887 64.9408 89.2259C63.378 87.6631 62.5 85.5435 62.5 83.3333C62.5 78.7083 66.2083 75 70.8333 75ZM4.16667 8.33333H17.7917L21.7083 16.6667H83.3333C84.4384 16.6667 85.4982 17.1057 86.2796 17.8871C87.061 18.6685 87.5 19.7283 87.5 20.8333C87.5 21.5417 87.2917 22.25 87 22.9167L72.0833 49.875C70.6667 52.4167 67.9167 54.1667 64.7917 54.1667H33.75L30 60.9583L29.875 61.4583C29.875 61.7346 29.9847 61.9996 30.1801 62.1949C30.3754 62.3903 30.6404 62.5 30.9167 62.5H79.1667V70.8333H29.1667C26.9565 70.8333 24.8369 69.9554 23.2741 68.3926C21.7113 66.8298 20.8333 64.7101 20.8333 62.5C20.8333 61.0417 21.2083 59.6667 21.8333 58.5L27.5 48.2917L12.5 16.6667H4.16667V8.33333ZM29.1667 75C31.3768 75 33.4964 75.878 35.0592 77.4408C36.622 79.0036 37.5 81.1232 37.5 83.3333C37.5 85.5435 36.622 87.6631 35.0592 89.2259C33.4964 90.7887 31.3768 91.6667 29.1667 91.6667C26.9565 91.6667 24.8369 90.7887 23.2741 89.2259C21.7113 87.6631 20.8333 85.5435 20.8333 83.3333C20.8333 78.7083 24.5417 75 29.1667 75ZM66.6667 45.8333L78.25 25H25.5833L35.4167 45.8333H66.6667Z" fill="var(--fill-0, #BBBBBB)"/>
</g>
</svg>
