<svg preserveAspectRatio="none" width="100%" height="100%" overflow="visible" style="display: block;" viewBox="0 0 24 24" fill="none" xmlns="http://www.w3.org/2000/svg">
<g id="material-symbols:thumb-up-outline-rounded">
<rect width="24" height="24" rx="12" fill="var(--fill-0, #CBFFDB)"/>
<path id="Vector" d="M21 8C21.5333 8 22 8.2 22.4 8.6C22.8 9 23 9.46667 23 10V12C23 12.1167 22.9833 12.2417 22.95 12.375C22.9167 12.5083 22.8833 12.6333 22.85 12.75L19.85 19.8C19.7 20.1333 19.45 20.4167 19.1 20.65C18.75 20.8833 18.3833 21 18 21H7V8L13 2.05C13.25 1.8 13.546 1.65433 13.888 1.613C14.23 1.57167 14.559 1.634 14.875 1.8C15.191 1.966 15.4243 2.19933 15.575 2.5C15.7257 2.80067 15.759 3.109 15.675 3.425L14.55 8H21ZM9 8.85V19H18L21 12V10H12L13.35 4.5L9 8.85ZM4 21C3.45 21 2.97933 20.8043 2.588 20.413C2.19667 20.0217 2.00067 19.5507 2 19V10C2 9.45 2.196 8.97933 2.588 8.588C2.98 8.19667 3.45067 8.00067 4 8H7V10H4V19H7V21H4Z" fill="var(--fill-0, #16A34A)"/>
</g>
</svg>
