<svg preserveAspectRatio="none" width="100%" height="100%" overflow="visible" style="display: block;" viewBox="0 0 18 18" fill="none" xmlns="http://www.w3.org/2000/svg">
<g id="fluent:food-16-regular">
<path id="Vector" d="M1.50525 2.20612C1.68188 1.53225 2.29613 1.125 2.94188 1.125C3.34013 1.125 3.70238 1.27462 3.978 1.51875C4.28189 1.26384 4.66586 1.12412 5.0625 1.12412C5.45914 1.12412 5.84311 1.26384 6.147 1.51875C6.43216 1.26448 6.80107 1.12429 7.18313 1.125C7.82888 1.125 8.44313 1.53225 8.61975 2.20612C8.7885 2.84962 9 3.88687 9 5.0625C8.99997 5.719 8.8358 6.36508 8.52241 6.94195C8.20902 7.51882 7.75636 8.00818 7.20563 8.3655C6.90075 8.56462 6.75 8.82113 6.75 9.0405V9.486C6.75 9.5115 6.7515 9.53625 6.7545 9.56025C6.79275 9.83925 6.93113 10.8754 7.0605 11.9497C7.18763 13.0039 7.3125 14.1536 7.3125 14.625C7.3125 15.2217 7.07545 15.794 6.65349 16.216C6.23153 16.6379 5.65924 16.875 5.0625 16.875C4.46576 16.875 3.89347 16.6379 3.47151 16.216C3.04955 15.794 2.8125 15.2217 2.8125 14.625C2.8125 14.1525 2.93737 13.005 3.0645 11.9497C3.19387 10.8754 3.33225 9.83925 3.3705 9.56025L3.375 9.486V9.0405C3.375 8.82113 3.22425 8.56462 2.91938 8.3655C2.36864 8.00818 1.91598 7.51882 1.60259 6.94195C1.2892 6.36508 1.12503 5.719 1.125 5.0625C1.125 3.88687 1.3365 2.84962 1.50525 2.20612ZM6.75 5.625C6.75 5.77418 6.69074 5.91726 6.58525 6.02275C6.47976 6.12824 6.33668 6.1875 6.1875 6.1875C6.03832 6.1875 5.89524 6.12824 5.78975 6.02275C5.68426 5.91726 5.625 5.77418 5.625 5.625V2.8125C5.625 2.66332 5.56574 2.52024 5.46025 2.41475C5.35476 2.30926 5.21168 2.25 5.0625 2.25C4.91332 2.25 4.77024 2.30926 4.66475 2.41475C4.55926 2.52024 4.5 2.66332 4.5 2.8125V5.625C4.5 5.77418 4.44074 5.91726 4.33525 6.02275C4.22976 6.12824 4.08668 6.1875 3.9375 6.1875C3.78832 6.1875 3.64524 6.12824 3.53975 6.02275C3.43426 5.91726 3.375 5.77418 3.375 5.625V2.68312C3.375 2.56825 3.32937 2.45809 3.24814 2.37686C3.16691 2.29563 3.05675 2.25 2.94188 2.25C2.75513 2.25 2.62688 2.36137 2.59313 2.49187C2.37142 3.33097 2.25614 4.19463 2.25 5.0625C2.24995 5.53167 2.36726 5.99339 2.59126 6.40563C2.81526 6.81787 3.13883 7.16752 3.5325 7.42275C4.02638 7.74337 4.5 8.307 4.5 9.0405V9.486C4.5 9.561 4.49512 9.636 4.48537 9.711C4.44712 9.98775 4.30988 11.0171 4.18163 12.0847C4.05113 13.1704 3.9375 14.238 3.9375 14.625C3.9375 14.9234 4.05603 15.2095 4.267 15.4205C4.47798 15.6315 4.76413 15.75 5.0625 15.75C5.36087 15.75 5.64702 15.6315 5.85799 15.4205C6.06897 15.2095 6.1875 14.9234 6.1875 14.625C6.1875 14.238 6.075 13.1704 5.94337 12.0836C5.81512 11.0171 5.67788 9.98775 5.63963 9.70987C5.63107 9.63591 5.62619 9.56157 5.625 9.48712V9.04162C5.625 8.30812 6.09863 7.7445 6.5925 7.42387C6.98633 7.16854 7.31 6.81871 7.53401 6.40626C7.75802 5.99381 7.87524 5.53186 7.875 5.0625C7.875 4.014 7.686 3.078 7.53188 2.49187C7.49813 2.3625 7.36875 2.25 7.18313 2.25C7.06825 2.25 6.95809 2.29563 6.87686 2.37686C6.79563 2.45809 6.75 2.56825 6.75 2.68312V5.625ZM10.125 6.1875C10.125 4.84484 10.6584 3.55717 11.6078 2.60777C12.5572 1.65837 13.8448 1.125 15.1875 1.125C15.3367 1.125 15.4798 1.18426 15.5852 1.28975C15.6907 1.39524 15.75 1.53832 15.75 1.6875V8.40712L15.7714 8.60625C15.8609 9.44588 15.9467 10.2859 16.029 11.1263C16.1674 12.5393 16.3125 14.1232 16.3125 14.625C16.3125 15.2217 16.0754 15.794 15.6535 16.216C15.2315 16.6379 14.6592 16.875 14.0625 16.875C13.4658 16.875 12.8935 16.6379 12.4715 16.216C12.0496 15.794 11.8125 15.2217 11.8125 14.625C11.8125 14.1232 11.9576 12.5393 12.096 11.1263C12.1669 10.4096 12.2378 9.72337 12.2906 9.21487L12.3131 9H11.25C10.9516 9 10.6655 8.88147 10.4545 8.67049C10.2435 8.45952 10.125 8.17337 10.125 7.875V6.1875ZM13.4966 8.49712L13.473 8.72438C13.3851 9.5615 13.2996 10.3989 13.2165 11.2365C13.0736 12.6844 12.9375 14.1952 12.9375 14.625C12.9375 14.9234 13.056 15.2095 13.267 15.4205C13.478 15.6315 13.7641 15.75 14.0625 15.75C14.3609 15.75 14.647 15.6315 14.858 15.4205C15.069 15.2095 15.1875 14.9234 15.1875 14.625C15.1875 14.1941 15.0514 12.6844 14.9085 11.2365C14.826 10.3988 14.7405 9.56144 14.652 8.72438L14.6284 8.49825L14.625 8.4375V2.28937C13.6877 2.42466 12.8306 2.89322 12.2107 3.60917C11.5908 4.32512 11.2498 5.24049 11.25 6.1875V7.875H12.9375C13.0164 7.87503 13.0944 7.89165 13.1664 7.92378C13.2385 7.95591 13.3029 8.00283 13.3557 8.0615C13.4084 8.12017 13.4482 8.18927 13.4725 8.26432C13.4968 8.33937 13.505 8.41869 13.4966 8.49712Z" fill="var(--fill-0, #4A4A4A)"/>
</g>
</svg>
