<svg preserveAspectRatio="none" width="100%" height="100%" overflow="visible" style="display: block;" viewBox="0 0 64 64" fill="none" xmlns="http://www.w3.org/2000/svg">
<g id="fluent:food-16-regular">
<rect width="64" height="64" rx="32" fill="var(--fill-0, white)"/>
<path id="Vector" d="M21.0759 21.6487C21.3433 20.6219 22.2736 20.0013 23.2515 20.0013C23.8546 20.0013 24.4032 20.2293 24.8206 20.6013C25.2808 20.2129 25.8623 20 26.463 20C27.0636 20 27.6451 20.2129 28.1053 20.6013C28.5372 20.2139 29.0959 20.0003 29.6744 20.0013C30.6524 20.0013 31.5826 20.6219 31.8501 21.6487C32.1056 22.6292 32.4259 24.2097 32.4259 26.001C32.4259 27.0013 32.1773 27.9858 31.7027 28.8648C31.2281 29.7438 30.5426 30.4894 29.7085 31.0339C29.2468 31.3373 29.0185 31.7281 29.0185 32.0624V32.7412C29.0185 32.7801 29.0208 32.8178 29.0253 32.8543C29.0833 33.2795 29.2928 34.8582 29.4887 36.4953C29.6813 38.1015 29.8704 39.8534 29.8704 40.5716C29.8704 41.4809 29.5114 42.3529 28.8724 42.9959C28.2334 43.6388 27.3667 44 26.463 44C25.5593 44 24.6926 43.6388 24.0536 42.9959C23.4145 42.3529 23.0556 41.4809 23.0556 40.5716C23.0556 39.8517 23.2447 38.1032 23.4372 36.4953C23.6331 34.8582 23.8427 33.2795 23.9006 32.8543L23.9074 32.7412V32.0624C23.9074 31.7281 23.6791 31.3373 23.2174 31.0339C22.3834 30.4894 21.6979 29.7438 21.2233 28.8648C20.7487 27.9858 20.5 27.0013 20.5 26.001C20.5 24.2097 20.8203 22.6292 21.0759 21.6487ZM29.0185 26.8581C29.0185 27.0854 28.9288 27.3034 28.769 27.4642C28.6093 27.6249 28.3926 27.7152 28.1667 27.7152C27.9407 27.7152 27.7241 27.6249 27.5643 27.4642C27.4046 27.3034 27.3148 27.0854 27.3148 26.8581V22.5726C27.3148 22.3453 27.2251 22.1273 27.0653 21.9666C26.9056 21.8058 26.6889 21.7155 26.463 21.7155C26.237 21.7155 26.0204 21.8058 25.8606 21.9666C25.7009 22.1273 25.6111 22.3453 25.6111 22.5726V26.8581C25.6111 27.0854 25.5214 27.3034 25.3616 27.4642C25.2019 27.6249 24.9852 27.7152 24.7593 27.7152C24.5333 27.7152 24.3167 27.6249 24.1569 27.4642C23.9972 27.3034 23.9074 27.0854 23.9074 26.8581V22.3755C23.9074 22.2005 23.8383 22.0326 23.7153 21.9088C23.5923 21.7851 23.4254 21.7155 23.2515 21.7155C22.9687 21.7155 22.7744 21.8852 22.7233 22.0841C22.3876 23.3626 22.213 24.6786 22.2037 26.001C22.2036 26.7159 22.3813 27.4194 22.7205 28.0476C23.0597 28.6757 23.5498 29.2085 24.1459 29.5974C24.8939 30.0859 25.6111 30.9447 25.6111 32.0624V32.7412C25.6111 32.8555 25.6037 32.9698 25.589 33.084C25.531 33.5057 25.3232 35.0742 25.129 36.701C24.9313 38.3552 24.7593 39.9819 24.7593 40.5716C24.7593 41.0263 24.9388 41.4623 25.2583 41.7837C25.5778 42.1052 26.0111 42.2858 26.463 42.2858C26.9148 42.2858 27.3482 42.1052 27.6677 41.7837C27.9872 41.4623 28.1667 41.0263 28.1667 40.5716C28.1667 39.9819 27.9963 38.3552 27.797 36.6993C27.6027 35.0742 27.3949 33.5057 27.337 33.0823C27.324 32.9696 27.3166 32.8563 27.3148 32.7429V32.0641C27.3148 30.9464 28.0321 30.0876 28.78 29.5991C29.3764 29.21 29.8666 28.677 30.2058 28.0485C30.5451 27.4201 30.7226 26.7162 30.7222 26.001C30.7222 24.4034 30.436 22.9772 30.2026 22.0841C30.1515 21.8869 29.9556 21.7155 29.6744 21.7155C29.5005 21.7155 29.3336 21.7851 29.2106 21.9088C29.0876 22.0326 29.0185 22.2005 29.0185 22.3755V26.8581ZM34.1296 27.7152C34.1296 25.6694 34.9374 23.7073 36.3751 22.2607C37.8129 20.814 39.763 20.0013 41.7963 20.0013C42.0222 20.0013 42.2389 20.0916 42.3986 20.2524C42.5584 20.4131 42.6481 20.6311 42.6481 20.8584V31.0973L42.6805 31.4007C42.8161 32.6801 42.9461 33.96 43.0707 35.2405C43.2802 37.3935 43.5 39.8071 43.5 40.5716C43.5 41.4809 43.141 42.3529 42.502 42.9959C41.863 43.6388 40.9963 44 40.0926 44C39.1889 44 38.3222 43.6388 37.6832 42.9959C37.0442 42.3529 36.6852 41.4809 36.6852 40.5716C36.6852 39.8071 36.905 37.3935 37.1145 35.2405C37.2219 34.1486 37.3292 33.1029 37.4093 32.3281L37.4433 32.0007H35.8333C35.3815 32.0007 34.9481 31.8201 34.6286 31.4986C34.3091 31.1771 34.1296 30.7411 34.1296 30.2865V27.7152ZM39.2356 31.2344L39.1999 31.5807C39.0667 32.8562 38.9372 34.1322 38.8114 35.4085C38.595 37.6146 38.3889 39.9168 38.3889 40.5716C38.3889 41.0263 38.5684 41.4623 38.8879 41.7837C39.2074 42.1052 39.6407 42.2858 40.0926 42.2858C40.5444 42.2858 40.9778 42.1052 41.2973 41.7837C41.6168 41.4623 41.7963 41.0263 41.7963 40.5716C41.7963 39.9151 41.5901 37.6146 41.3738 35.4085C41.2488 34.1321 41.1193 32.8562 40.9853 31.5807L40.9496 31.2361L40.9444 31.1436V21.7755C39.525 21.9817 38.227 22.6956 37.2882 23.7865C36.3495 24.8774 35.833 26.2722 35.8333 27.7152V30.2865H38.3889C38.5083 30.2865 38.6265 30.3118 38.7356 30.3608C38.8447 30.4098 38.9423 30.4813 39.0222 30.5707C39.102 30.66 39.1623 30.7653 39.1991 30.8797C39.2358 30.9941 39.2483 31.1149 39.2356 31.2344Z" fill="var(--fill-0, #E66E00)"/>
</g>
</svg>
