<svg preserveAspectRatio="none" width="100%" height="100%" overflow="visible" style="display: block;" viewBox="0 0 20 20" fill="none" xmlns="http://www.w3.org/2000/svg">
<g id="fluent:food-16-regular">
<path id="Vector" d="M1.6725 2.45125C1.86875 1.7025 2.55125 1.25 3.26875 1.25C3.71125 1.25 4.11375 1.41625 4.42 1.6875C4.75765 1.40427 5.18428 1.24902 5.625 1.24902C6.06572 1.24902 6.49235 1.40427 6.83 1.6875C7.14684 1.40498 7.55674 1.24921 7.98125 1.25C8.69875 1.25 9.38125 1.7025 9.5775 2.45125C9.765 3.16625 10 4.31875 10 5.625C9.99997 6.35445 9.81755 7.07231 9.46934 7.71327C9.12113 8.35424 8.61818 8.89797 8.00625 9.295C7.6675 9.51625 7.5 9.80125 7.5 10.045V10.54C7.5 10.5683 7.50167 10.5958 7.505 10.6225C7.5475 10.9325 7.70125 12.0837 7.845 13.2775C7.98625 14.4487 8.125 15.7262 8.125 16.25C8.125 16.913 7.86161 17.5489 7.39277 18.0178C6.92393 18.4866 6.28804 18.75 5.625 18.75C4.96196 18.75 4.32607 18.4866 3.85723 18.0178C3.38839 17.5489 3.125 16.913 3.125 16.25C3.125 15.725 3.26375 14.45 3.405 13.2775C3.54875 12.0837 3.7025 10.9325 3.745 10.6225L3.75 10.54V10.045C3.75 9.80125 3.5825 9.51625 3.24375 9.295C2.63182 8.89797 2.12887 8.35424 1.78066 7.71327C1.43245 7.07231 1.25003 6.35445 1.25 5.625C1.25 4.31875 1.485 3.16625 1.6725 2.45125ZM7.5 6.25C7.5 6.41576 7.43415 6.57473 7.31694 6.69194C7.19973 6.80915 7.04076 6.875 6.875 6.875C6.70924 6.875 6.55027 6.80915 6.43306 6.69194C6.31585 6.57473 6.25 6.41576 6.25 6.25V3.125C6.25 2.95924 6.18415 2.80027 6.06694 2.68306C5.94973 2.56585 5.79076 2.5 5.625 2.5C5.45924 2.5 5.30027 2.56585 5.18306 2.68306C5.06585 2.80027 5 2.95924 5 3.125V6.25C5 6.41576 4.93415 6.57473 4.81694 6.69194C4.69973 6.80915 4.54076 6.875 4.375 6.875C4.20924 6.875 4.05027 6.80915 3.93306 6.69194C3.81585 6.57473 3.75 6.41576 3.75 6.25V2.98125C3.75 2.85361 3.6993 2.73121 3.60905 2.64095C3.51879 2.5507 3.39639 2.5 3.26875 2.5C3.06125 2.5 2.91875 2.62375 2.88125 2.76875C2.63491 3.70108 2.50683 4.6607 2.5 5.625C2.49994 6.1463 2.63029 6.65932 2.87918 7.11737C3.12807 7.57541 3.48759 7.96392 3.925 8.2475C4.47375 8.60375 5 9.23 5 10.045V10.54C5 10.6233 4.99458 10.7067 4.98375 10.79C4.94125 11.0975 4.78875 12.2412 4.64625 13.4275C4.50125 14.6337 4.375 15.82 4.375 16.25C4.375 16.5815 4.5067 16.8995 4.74112 17.1339C4.97554 17.3683 5.29348 17.5 5.625 17.5C5.95652 17.5 6.27446 17.3683 6.50888 17.1339C6.7433 16.8995 6.875 16.5815 6.875 16.25C6.875 15.82 6.75 14.6338 6.60375 13.4263C6.46125 12.2413 6.30875 11.0975 6.26625 10.7887C6.25674 10.7066 6.25132 10.624 6.25 10.5412V10.0462C6.25 9.23125 6.77625 8.605 7.325 8.24875C7.76259 7.96505 8.12222 7.57635 8.37112 7.11807C8.62002 6.65979 8.75027 6.14651 8.75 5.625C8.75 4.46 8.54 3.42 8.36875 2.76875C8.33125 2.625 8.1875 2.5 7.98125 2.5C7.85361 2.5 7.73121 2.5507 7.64095 2.64095C7.5507 2.73121 7.5 2.85361 7.5 2.98125V6.25ZM11.25 6.875C11.25 5.38316 11.8426 3.95242 12.8975 2.89752C13.9524 1.84263 15.3832 1.25 16.875 1.25C17.0408 1.25 17.1997 1.31585 17.3169 1.43306C17.4342 1.55027 17.5 1.70924 17.5 1.875V9.34125L17.5238 9.5625C17.6232 10.4954 17.7186 11.4288 17.81 12.3625C17.9638 13.9325 18.125 15.6925 18.125 16.25C18.125 16.913 17.8616 17.5489 17.3928 18.0178C16.9239 18.4866 16.288 18.75 15.625 18.75C14.962 18.75 14.3261 18.4866 13.8572 18.0178C13.3884 17.5489 13.125 16.913 13.125 16.25C13.125 15.6925 13.2862 13.9325 13.44 12.3625C13.5187 11.5663 13.5975 10.8037 13.6563 10.2387L13.6812 10H12.5C12.1685 10 11.8505 9.8683 11.6161 9.63388C11.3817 9.39946 11.25 9.08152 11.25 8.75V6.875ZM14.9962 9.44125L14.97 9.69375C14.8723 10.6239 14.7773 11.5543 14.685 12.485C14.5263 14.0937 14.375 15.7725 14.375 16.25C14.375 16.5815 14.5067 16.8995 14.7411 17.1339C14.9755 17.3683 15.2935 17.5 15.625 17.5C15.9565 17.5 16.2745 17.3683 16.5089 17.1339C16.7433 16.8995 16.875 16.5815 16.875 16.25C16.875 15.7712 16.7237 14.0937 16.565 12.485C16.4733 11.5542 16.3783 10.6238 16.28 9.69375L16.2538 9.4425L16.25 9.375V2.54375C15.2086 2.69407 14.2562 3.21469 13.5674 4.01019C12.8787 4.80569 12.4997 5.82277 12.5 6.875V8.75H14.375C14.4626 8.75003 14.5493 8.7685 14.6293 8.8042C14.7094 8.8399 14.781 8.89203 14.8396 8.95722C14.8982 9.02241 14.9424 9.09919 14.9694 9.18258C14.9964 9.26597 15.0055 9.3541 14.9962 9.44125Z" fill="var(--fill-0, #5C5C5C)"/>
</g>
</svg>
