<svg preserveAspectRatio="none" width="100%" height="100%" overflow="visible" style="display: block;" viewBox="0 0 48 48" fill="none" xmlns="http://www.w3.org/2000/svg">
<g id="Frame 369">
<rect x="0.5" y="0.5" width="47" height="47" rx="23.5" fill="var(--fill-0, white)"/>
<rect x="0.5" y="0.5" width="47" height="47" rx="23.5" stroke="var(--stroke-0, #D1D1D1)"/>
<path id="Vector" d="M24 30C24.34 30 24.6252 29.8848 24.8556 29.6544C25.086 29.424 25.2008 29.1392 25.2 28.8C25.1992 28.4608 25.084 28.176 24.8544 27.9456C24.6248 27.7152 24.34 27.6 24 27.6C23.66 27.6 23.3752 27.7152 23.1456 27.9456C22.916 28.176 22.8008 28.4608 22.8 28.8C22.7992 29.1392 22.9144 29.4244 23.1456 29.6556C23.3768 29.8868 23.6616 30.0016 24 30ZM22.8 25.2H25.2V18H22.8V25.2ZM24 36C22.34 36 20.78 35.6848 19.32 35.0544C17.86 34.424 16.59 33.5692 15.51 32.49C14.43 31.4108 13.5752 30.1408 12.9456 28.68C12.316 27.2192 12.0008 25.6592 12 24C11.9992 22.3408 12.3144 20.7808 12.9456 19.32C13.5768 17.8592 14.4316 16.5892 15.51 15.51C16.5884 14.4308 17.8584 13.576 19.32 12.9456C20.7816 12.3152 22.3416 12 24 12C25.6584 12 27.2184 12.3152 28.68 12.9456C30.1416 13.576 31.4116 14.4308 32.49 15.51C33.5684 16.5892 34.4236 17.8592 35.0556 19.32C35.6876 20.7808 36.0024 22.3408 36 24C35.9976 25.6592 35.6824 27.2192 35.0544 28.68C34.4264 30.1408 33.5716 31.4108 32.49 32.49C31.4084 33.5692 30.1384 34.4244 28.68 35.0556C27.2216 35.6868 25.6616 36.0016 24 36ZM24 33.6C26.68 33.6 28.95 32.67 30.81 30.81C32.67 28.95 33.6 26.68 33.6 24C33.6 21.32 32.67 19.05 30.81 17.19C28.95 15.33 26.68 14.4 24 14.4C21.32 14.4 19.05 15.33 17.19 17.19C15.33 19.05 14.4 21.32 14.4 24C14.4 26.68 15.33 28.95 17.19 30.81C19.05 32.67 21.32 33.6 24 33.6Z" fill="var(--fill-0, #FF7A00)"/>
</g>
</svg>
